<svg xmlns="http://www.w3.org/2000/svg" width="560" height="560" viewBox="0 0 560 560" font-family="sans-serif">
<rect width="560" height="560" fill="#1a1a2e"/>
<text x="280" y="40" fill="#eee" font-size="18" text-anchor="middle">Hanako 悬浮球图标预览</text>
<rect x="30" y="60" width="110" height="110" fill="#16213e" rx="12"/>
<g transform="translate(50,75) scale(2.9166666666666665)">
<rect width="24.0" height="24.0" fill="#4F378B" rx="4"/>
<path fill="#FFFFFF" d="M7,3h2v2h6V3h2v2h3v2h-3v10h3v2h-3v2h-2v-2H9v2H7v-2H4v-2h3V7H4V5h3V3zM9,7v10h6V7H9z"/>
</g>
<text x="85" y="188" fill="#aaa" font-size="10" text-anchor="middle">截图/框选 (普通)</text>
<rect x="160" y="60" width="110" height="110" fill="#16213e" rx="12"/>
<g transform="translate(180,75) scale(2.9166666666666665)">
<rect width="24.0" height="24.0" fill="#4F378B" rx="4"/>
<path fill="#FFFFFF" d="M12,2l2.09,6.26L20,10.18l-4.91,3.56L16.91,20 12,16.9 7.09,20l1.82,-6.26L4,10.18l5.91,-1.92L12,2z"/>
</g>
<text x="215" y="188" fill="#aaa" font-size="10" text-anchor="middle">自动模式</text>
<rect x="290" y="60" width="110" height="110" fill="#16213e" rx="12"/>
<g transform="translate(310,75) scale(2.9166666666666665)">
<rect width="24.0" height="24.0" fill="#4F378B" rx="4"/>
<path fill="#FFFFFF" d="M12,8c1.1,0 2,-0.9 2,-2s-0.9,-2 -2,-2 -2,0.9 -2,2 0.9,2 2,2zM12,10c-1.1,0 -2,0.9 -2,2s0.9,2 2,2 2,-0.9 2,-2 -0.9,-2 -2,-2zM12,16c-1.1,0 -2,0.9 -2,2s0.9,2 2,2 2,-0.9 2,-2 -0.9,-2 -2,-2z"/>
</g>
<text x="345" y="188" fill="#aaa" font-size="10" text-anchor="middle">三点菜单</text>
<rect x="420" y="60" width="110" height="110" fill="#16213e" rx="12"/>
<g transform="translate(440,75) scale(2.9166666666666665)">
<rect width="24.0" height="24.0" fill="#4F378B" rx="4"/>
<path fill="#FFFFFF" d="M16,4h-1.18C14.4,2.84 13.3,2 12,2s-2.4,0.84 -2.82,2H8c-1.1,0 -2,0.9 -2,2v14c0,1.1 0.9,2 2,2h8c1.1,0 2,-0.9 2,-2V6c0,-1.1 -0.9,-2 -2,-2zM12,4c0.55,0 1,0.45 1,1s-0.45,1 -1,1 -1,-0.45 -1,-1 0.45,-1 1,-1zM16,20H8V6h2v1h4V6h2v14z"/>
</g>
<text x="475" y="188" fill="#aaa" font-size="10" text-anchor="middle">已复制</text>
<rect x="30" y="220" width="110" height="110" fill="#16213e" rx="12"/>
<g transform="translate(50,235) scale(2.9166666666666665)">
<rect width="24.0" height="24.0" fill="#4F378B" rx="4"/>
<path fill="#FFFFFF" d="M21,19V5c0,-1.1 -0.9,-2 -2,-2H5c-1.1,0 -2,0.9 -2,2v14c0,1.1 0.9,2 2,2h14c1.1,0 2,-0.9 2,-2zM8.5,13.5l2.5,3.01L14.5,12l4.5,6H5l3.5,-4.5z"/>
</g>
<text x="85" y="348" fill="#aaa" font-size="10" text-anchor="middle">图片/多图成功</text>
<rect x="160" y="220" width="110" height="110" fill="#16213e" rx="12"/>
<g transform="translate(180,235) scale(2.9166666666666665)">
<rect width="24.0" height="24.0" fill="#4F378B" rx="4"/>
<path fill="#FFFFFF" d="M18.3,5.71L12,12l6.3,6.29 -1.41,1.42L10.59,13.41 4.3,19.71 2.89,18.29 9.18,12 2.89,5.71 4.3,4.29 10.59,10.59 16.89,4.29z"/>
</g>
<text x="215" y="348" fill="#aaa" font-size="10" text-anchor="middle">错误 x</text>
<rect x="290" y="220" width="110" height="110" fill="#16213e" rx="12"/>
<g transform="translate(310,235) scale(2.9166666666666665)">
<rect width="24.0" height="24.0" fill="#4F378B" rx="4"/>
<path fill="#FFFFFF" d="M21,4H3c-1.1,0 -2,0.9 -2,2v12c0,1.1 0.9,2 2,2h18c1.1,0 2,-0.9 2,-2V6c0,-1.1 -0.9,-2 -2,-2zM3,18V6h18v12H3zM9,8c-1.1,0 -2,0.9 -2,2s0.9,2 2,2 2,-0.9 2,-2 -0.9,-2 -2,-2zM15,8c-1.1,0 -2,0.9 -2,2s0.9,2 2,2 2,-0.9 2,-2 -0.9,-2 -2,-2zM7,14c0,1.1 0.9,2 2,2h6c1.1,0 2,-0.9 2,-2v-1H7v1z"/>
</g>
<text x="345" y="348" fill="#aaa" font-size="10" text-anchor="middle">视觉 (菜单)</text>
<rect x="420" y="220" width="110" height="110" fill="#16213e" rx="12"/>
<g transform="translate(440,235) scale(2.9166666666666665)">
<rect width="24.0" height="24.0" fill="#4F378B" rx="4"/>
<path fill="#FFFFFF" d="M12,2C6.48,2 2,6.48 2,12s4.48,10 10,10 10,-4.48 10,-10S17.52,2 12,2zM11,19.93c-3.95,-0.49 -7,-3.85 -7,-7.93 0,-0.62 0.08,-1.21 0.21,-1.79L9,15v1c0,1.1 0.9,2 2,2v1.93zM17.9,17.39c-0.26,-0.81 -1,-1.39 -1.9,-1.39h-1v-3c0,-0.55 -0.45,-1 -1,-1H8v-2h2c0.55,0 1,-0.45 1,-1V7h2c1.1,0 2,-0.9 2,-2v-0.41c2.93,1.19 5,4.06 5,7.41 0,2.08 -0.8,3.97 -2.1,5.39z"/>
</g>
<text x="475" y="348" fill="#aaa" font-size="10" text-anchor="middle">联网 (菜单)</text>
<rect x="30" y="380" width="110" height="110" fill="#16213e" rx="12"/>
<g transform="translate(50,395) scale(2.9166666666666665)">
<rect width="24.0" height="24.0" fill="#4F378B" rx="4"/>
<path fill="#FFFFFF" d="M19.14,12.94c0.04,-0.3 0.06,-0.61 0.06,-0.94 0,-0.32 -0.02,-0.64 -0.07,-0.94l2.03,-1.58c0.18,-0.14 0.23,-0.41 0.12,-0.61l-1.92,-3.32c-0.12,-0.22 -0.37,-0.29 -0.59,-0.22l-2.39,0.96c-0.5,-0.38 -1.03,-0.7 -1.62,-0.94l-0.36,-2.54c-0.04,-0.24 -0.24,-0.41 -0.48,-0.41h-3.84c-0.24,0 -0.43,0.17 -0.47,0.41l-0.36,2.54c-0.59,0.24 -1.13,0.57 -1.62,0.94l-2.39,-0.96c-0.22,-0.08 -0.47,0 -0.59,0.22L2.74,8.87c-0.12,0.21 -0.08,0.47 0.12,0.61l2.03,1.58c-0.05,0.3 -0.09,0.63 -0.09,0.94s0.02,0.64 0.07,0.94l-2.03,1.58c-0.18,0.14 -0.23,0.41 -0.12,0.61l1.92,3.32c0.12,0.22 0.37,0.29 0.59,0.22l2.39,-0.96c0.5,0.38 1.03,0.7 1.62,0.94l0.36,2.54c0.05,0.24 0.24,0.41 0.48,0.41h3.84c0.24,0 0.44,-0.17 0.47,-0.41l0.36,-2.54c0.59,-0.24 1.13,-0.56 1.62,-0.94l2.39,0.96c0.22,0.08 0.47,0 0.59,-0.22l1.92,-3.32c0.12,-0.22 0.07,-0.47 -0.12,-0.61l-2.01,-1.58zM12,15.6c-1.98,0 -3.6,-1.62 -3.6,-3.6s1.62,-3.6 3.6,-3.6 3.6,1.62 3.6,3.6 -1.62,3.6 -3.6,3.6z"/>
</g>
<text x="85" y="508" fill="#aaa" font-size="10" text-anchor="middle">设置 (菜单)</text>
<rect x="160" y="380" width="110" height="110" fill="#16213e" rx="12"/>
<g transform="translate(180,395) scale(2.9166666666666665)">
<rect width="24.0" height="24.0" fill="#4F378B" rx="4"/>
<path fill="#FFFFFF" d="M12,14c1.66,0 3,-1.34 3,-3V5c0,-1.66 -1.34,-3 -3,-3S9,3.34 9,5v6c0,1.66 1.34,3 3,3zM17.3,11c0,3 -2.54,5.1 -5.3,5.1S6.7,14 6.7,11H5c0,3.41 2.72,6.23 6,6.72V21h2v-3.28c3.28,-0.49 6,-3.31 6,-6.72h-1.7z"/>
</g>
<text x="215" y="508" fill="#aaa" font-size="10" text-anchor="middle">语音 (已屏蔽)</text>
<rect x="290" y="380" width="110" height="110" fill="#16213e" rx="12"/>
<g transform="translate(310,395) scale(2.9166666666666665)">
<rect width="24.0" height="24.0" fill="#4F378B" rx="4"/>
<path fill="#FFFFFF" d="M19,3H5C3.9,3 3,3.9 3,5v14c0,1.1 0.9,2 2,2h14c1.1,0 2,-0.9 2,-2V5c0,-1.1 -0.9,-2 -2,-2zM5,19V5h14v14H5zM9,7H7v2h2V7zM11,7H9v2h2V7zM13,7h-2v2h2V7zM15,7h-2v2h2V7zM17,7h-2v2h2V7z"/>
</g>
<text x="345" y="508" fill="#aaa" font-size="10" text-anchor="middle">多图 (已移除)</text>
</svg>